<?xml version="1.0" encoding="utf-8"?>
<!-- Generator: Adobe Illustrator 24.2.1, SVG Export Plug-In . SVG Version: 6.00 Build 0)  -->
<svg version="1.1" id="Capa_1" xmlns="http://www.w3.org/2000/svg" xmlns:xlink="http://www.w3.org/1999/xlink" x="0px" y="0px"
	 width="22.1px" height="22.1px" viewBox="0 0 22.1 22.1" style="enable-background:new 0 0 22.1 22.1;" xml:space="preserve">
<style type="text/css">
	.st0{fill:#FFFFFF;}
</style>
<g>
	<path class="st0" d="M5.7,19.4c-0.8,0-1.6,0-2.3,0c-0.3,0-0.7-0.1-0.9-0.3c-0.2-0.2-0.3-0.7-0.2-0.9c0.1-0.2,0.5-0.5,0.8-0.5
		c1.5-0.1,3-0.1,4.5-0.1c0.1,0,0.3,0,0.4,0c0.2-0.1,0.3-0.2,0.5-0.3C8.3,17.2,8.2,17,8,17c-0.9-0.1-1.8-0.2-2.7-0.3
		c-0.9-0.1-1.8-0.2-2.7-0.4c-0.2,0-0.3-0.1-0.5-0.1c-0.5-0.1-0.8-0.5-0.7-1c0.1-0.5,0.6-0.7,1-0.7c1.3,0.1,2.6,0.3,3.9,0.5
		c0.5,0.1,1,0.2,1.5,0.2c0.2,0,0.4-0.1,0.7-0.2c-0.2-0.2-0.4-0.4-0.6-0.5c-0.9-0.3-1.8-0.5-2.8-0.7c-0.4-0.1-0.8-0.2-1.2-0.4
		c-0.5-0.2-0.7-0.6-0.5-1.1c0.2-0.5,0.5-0.6,1-0.5c2.4,0.5,4.9,1,7.3,1.4c0.2,0,0.5,0.2,0.7,0.1c0.3,0,0.7-0.1,0.8-0.3
		c0.1-0.2-0.1-0.7-0.2-0.9c-0.3-0.4-0.8-0.6-1.2-0.9c-0.3-0.2-0.6-0.4-0.9-0.6c-0.4-0.3-0.5-0.8-0.2-1.2c0.3-0.4,0.7-0.5,1.1-0.2
		c1.5,0.9,3.1,1.8,4.3,3.2c0.5,0.6,1,1.1,1.5,1.7c0.2,0.4,0.4,0.9,0.4,1.3c-0.2,1.6-0.5,3.2-0.8,4.8c-0.1,0.7-0.5,1-1.1,1
		c-2.8,0.3-5.6,0.6-8.5,0.9c-0.8,0.1-1.5,0.1-2.3,0.1c-0.5,0-0.8-0.4-0.7-0.8c0-0.3,0.3-0.6,0.6-0.8c0.1-0.1,0.3-0.1,0.5-0.1
		c0.8-0.1,1.7-0.2,2.5-0.3c0.2,0,0.4-0.2,0.5-0.4c-0.2-0.1-0.4-0.3-0.6-0.3C7.4,19.4,6.5,19.4,5.7,19.4C5.7,19.4,5.7,19.4,5.7,19.4z
		"/>
	<path class="st0" d="M12.8,12.8c-0.8-0.2-1.6-0.3-2.4-0.5c-0.2,0-0.4-0.2-0.5-0.3c-1.2-1.2-2.3-2.4-3.5-3.6c0,0,0,0,0,0
		C5.7,7.6,5.6,7.1,6.1,6.6c0.4-0.4,1-0.3,1.6,0.3C8.3,7.5,8.8,8,9.3,8.5C9.5,8.7,9.7,8.7,10,8.8C9.9,8.6,9.8,8.4,9.7,8.2
		C8.8,7.1,7.9,5.9,7,4.8C6.9,4.7,6.8,4.5,6.7,4.4C6.4,3.9,6.5,3.3,6.9,2.9c0.5-0.3,1-0.2,1.4,0.3c0.9,1.2,1.9,2.3,2.8,3.5
		c0.1,0.2,0.3,0.3,0.4,0.5c0.1,0,0.1-0.1,0.2-0.1c-0.1-0.2-0.1-0.4-0.2-0.5c-0.7-1.2-1.5-2.4-2.2-3.7C9.1,2.5,8.9,2.1,8.7,1.6
		C8.4,1,8.6,0.5,9,0.3c0.4-0.2,1-0.1,1.3,0.5c0.8,1.3,1.6,2.7,2.4,4c0.2,0.3,0.3,0.5,0.5,0.8c0.1,0.1,0.2,0.1,0.4,0.2
		c0-0.1,0.1-0.3,0-0.4c-0.2-0.6-0.5-1.2-0.8-1.8c-0.3-0.7-0.6-1.4-0.9-2.1c-0.2-0.6,0-1.1,0.5-1.3c0.5-0.2,0.9,0,1.2,0.6
		c1.2,2.3,2.3,4.6,3.5,6.8c0.2,0.4,0.3,0.9,0.9,0.8c0.6-0.1,0.5-0.7,0.5-1.1c0-0.7-0.1-1.4-0.1-2.1c0-0.6,0.3-1,0.9-1.1
		c0.6-0.1,0.9,0.2,1,0.9c0.5,2.6,0.4,5.2-0.3,7.8c-0.2,0.9-1,1.1-1.6,1.5c-0.6-0.6-1.1-1.3-1.7-1.9c-1.3-1.6-3-2.6-4.8-3.6
		c-0.7-0.4-1.4-0.2-1.8,0.5C9.8,9.7,10,10.5,10.6,11c0.5,0.3,1,0.7,1.5,1c0.3,0.2,0.5,0.4,0.8,0.7C12.8,12.7,12.8,12.7,12.8,12.8z"
		/>
</g>
</svg>
