<svg id="Capa_1" data-name="Capa 1" xmlns="http://www.w3.org/2000/svg" viewBox="0 0 142.95 59.08"><defs><style>.cls-1{fill:#fff;}</style></defs><path class="cls-1" d="M3.79,22.35v-18h6.65A7.63,7.63,0,0,1,13.57,5a5,5,0,0,1,2.21,1.84,5.47,5.47,0,0,1,.82,3.11,5.73,5.73,0,0,1-.82,3.15,5.21,5.21,0,0,1-2.21,2,7.19,7.19,0,0,1-3.13.67H8v6.64Zm4.2-10h1.1a5.19,5.19,0,0,0,1.48-.21,2.41,2.41,0,0,0,1.16-.7,2.11,2.11,0,0,0,.44-1.41,2.1,2.1,0,0,0-.44-1.42,2.44,2.44,0,0,0-1.16-.72,5.19,5.19,0,0,0-1.48-.2H8Z" transform="translate(-1.63 -3.59)"/><path class="cls-1" d="M23.57,22.7a7.55,7.55,0,0,1-3.4-.76,6,6,0,0,1-2.4-2.09,5.46,5.46,0,0,1-.89-3.08,5.43,5.43,0,0,1,.89-3.08,6,6,0,0,1,2.4-2.1,8,8,0,0,1,6.8,0,6.05,6.05,0,0,1,2.4,2.1,5.43,5.43,0,0,1,.88,3.08,5.45,5.45,0,0,1-.88,3.08A6.11,6.11,0,0,1,27,21.94,7.58,7.58,0,0,1,23.57,22.7Zm0-3.38A2.51,2.51,0,0,0,24.84,19a2.53,2.53,0,0,0,.91-.9,2.75,2.75,0,0,0,0-2.65,2.38,2.38,0,0,0-.91-.9,2.51,2.51,0,0,0-1.27-.33,2.48,2.48,0,0,0-1.27.33,2.32,2.32,0,0,0-.91.9,2.75,2.75,0,0,0,0,2.65,2.49,2.49,0,0,0,2.18,1.23Z" transform="translate(-1.63 -3.59)"/><path class="cls-1" d="M32.85,22.35V11.18h4v1.58a5,5,0,0,1,1.59-1.42,3.9,3.9,0,0,1,1.93-.51,4.66,4.66,0,0,1,1.29.2,3.82,3.82,0,0,1,1.13.51L41.1,14.89a3.41,3.41,0,0,0-.92-.44,3.25,3.25,0,0,0-1-.17,2.23,2.23,0,0,0-1.16.32,2.6,2.6,0,0,0-.89.82,2,2,0,0,0-.34,1.09v5.84Z" transform="translate(-1.63 -3.59)"/><path class="cls-1" d="M48.46,22.7a3.6,3.6,0,0,1-2.83-1.14,4.68,4.68,0,0,1-1-3.19V14.2H43v-3h1.62V7h4v4.18h2.33v3H48.6v3.87a1.29,1.29,0,0,0,.21.8.75.75,0,0,0,.63.27,1.53,1.53,0,0,0,1-.35l1,3.2a6.34,6.34,0,0,1-1.41.52A6.64,6.64,0,0,1,48.46,22.7Z" transform="translate(-1.63 -3.59)"/><path class="cls-1" d="M58.65,22.7a5.28,5.28,0,0,1-2.79-.77,5.57,5.57,0,0,1-2-2.12,6.18,6.18,0,0,1-.75-3.07,6.33,6.33,0,0,1,.71-3,5.56,5.56,0,0,1,2-2.12,5.25,5.25,0,0,1,2.86-.79,5.6,5.6,0,0,1,2,.36,4.48,4.48,0,0,1,1.62,1v-1h4V22.35h-4V21.19a5.47,5.47,0,0,1-1.69,1.12A4.87,4.87,0,0,1,58.65,22.7Zm1.2-3.37A2.55,2.55,0,0,0,61.16,19a2.36,2.36,0,0,0,.88-.92,2.86,2.86,0,0,0,0-2.63,2.36,2.36,0,0,0-.89-.91,2.64,2.64,0,0,0-2.59,0,2.48,2.48,0,0,0-.91.91,2.59,2.59,0,0,0-.33,1.32,2.63,2.63,0,0,0,.33,1.31,2.48,2.48,0,0,0,.9.92A2.54,2.54,0,0,0,59.85,19.33Z" transform="translate(-1.63 -3.59)"/><path class="cls-1" d="M69.93,22.35V3.59h4V22.35Z" transform="translate(-1.63 -3.59)"/><path class="cls-1" d="M88.13,22.7a5.1,5.1,0,0,1-2.74-.76,5.41,5.41,0,0,1-2-2.09,6.19,6.19,0,0,1-.75-3.08,6.35,6.35,0,0,1,.72-3,5.54,5.54,0,0,1,2-2.12,5.67,5.67,0,0,1,4.86-.42,4.66,4.66,0,0,1,1.6,1V3.59h4V22.35h-4V21.19a5.43,5.43,0,0,1-1.7,1.11A5,5,0,0,1,88.13,22.7Zm1.22-3.37A2.59,2.59,0,0,0,90.67,19a2.38,2.38,0,0,0,.89-.92,2.52,2.52,0,0,0,.32-1.29,2.62,2.62,0,0,0-.32-1.33,2.52,2.52,0,0,0-4.38,0,2.69,2.69,0,0,0-.33,1.34,2.52,2.52,0,0,0,.32,1.29,2.43,2.43,0,0,0,.89.91A2.53,2.53,0,0,0,89.35,19.33Z" transform="translate(-1.63 -3.59)"/><path class="cls-1" d="M104.87,22.7a6.75,6.75,0,0,1-3.29-.79,6,6,0,0,1-2.31-2.12,5.89,5.89,0,0,1-.36-5.36,5.72,5.72,0,0,1,1.34-1.89,6.12,6.12,0,0,1,2-1.26,6.8,6.8,0,0,1,2.49-.45,6.29,6.29,0,0,1,3.06.73,5.17,5.17,0,0,1,2,2,5.84,5.84,0,0,1,.74,3v.26c0,.08,0,.24,0,.48h-8a2.19,2.19,0,0,0,.31,1.18,2.15,2.15,0,0,0,.9.78,3.17,3.17,0,0,0,1.36.28,2.83,2.83,0,0,0,1.27-.28,4.47,4.47,0,0,0,1.16-.92l2.86,1.42a5.45,5.45,0,0,1-2.26,2.15A6.8,6.8,0,0,1,104.87,22.7Zm-2.22-7.4h4a2,2,0,0,0-.35-.91,1.61,1.61,0,0,0-.7-.56,2.33,2.33,0,0,0-1-.19,2.56,2.56,0,0,0-1,.19,1.61,1.61,0,0,0-.69.57A1.75,1.75,0,0,0,102.65,15.3Z" transform="translate(-1.63 -3.59)"/><path class="cls-1" d="M5.85,42.34V28H1.63V24.35H14.28V28H10.06v14.3Z" transform="translate(-1.63 -3.59)"/><path class="cls-1" d="M14.82,42.34V31.17h4v1.58a4.94,4.94,0,0,1,1.58-1.42,3.92,3.92,0,0,1,1.93-.51,4.67,4.67,0,0,1,1.3.2,3.64,3.64,0,0,1,1.12.51l-1.65,3.35a3.56,3.56,0,0,0-.92-.44,3,3,0,0,0-1-.17,2.29,2.29,0,0,0-1.16.31,2.63,2.63,0,0,0-.89.83,2,2,0,0,0-.34,1.09v5.84Z" transform="translate(-1.63 -3.59)"/><path class="cls-1" d="M30.83,42.68A5.22,5.22,0,0,1,28,41.92a5.67,5.67,0,0,1-2-2.12,6.72,6.72,0,0,1,0-6.07A5.46,5.46,0,0,1,28,31.61a5.22,5.22,0,0,1,2.87-.79,5.68,5.68,0,0,1,2,.36,4.48,4.48,0,0,1,1.62,1v-1h4V42.34h-4V41.18a5.57,5.57,0,0,1-1.7,1.12A4.82,4.82,0,0,1,30.83,42.68ZM32,39.32A2.48,2.48,0,0,0,33.34,39a2.33,2.33,0,0,0,.88-.91,2.69,2.69,0,0,0,.32-1.32,2.64,2.64,0,0,0-.33-1.32,2.48,2.48,0,0,0-.88-.91,2.71,2.71,0,0,0-2.59,0,2.48,2.48,0,0,0-.91.91,2.8,2.8,0,0,0,0,2.64,2.25,2.25,0,0,0,.9.91A2.45,2.45,0,0,0,32,39.32Zm.1-9.23-1.64-1.35,3.36-5,2.6,2Z" transform="translate(-1.63 -3.59)"/><path class="cls-1" d="M42.1,42.34V31.17h4v1.14a6.71,6.71,0,0,1,1.67-1.14,4.06,4.06,0,0,1,1.67-.35,4.79,4.79,0,0,1,2.29.56,3.38,3.38,0,0,1,1.51,1.48A6.12,6.12,0,0,1,55,31.32a4.26,4.26,0,0,1,2-.5,4.49,4.49,0,0,1,2.17.51,3.77,3.77,0,0,1,1.48,1.43,4.06,4.06,0,0,1,.55,2.14v7.44h-4V36a2.11,2.11,0,0,0-.48-1.46A1.67,1.67,0,0,0,55.5,34a2,2,0,0,0-1,.23,1.57,1.57,0,0,0-.64.61,1.84,1.84,0,0,0-.23.91v6.61h-4V36a2.12,2.12,0,0,0-.46-1.43A1.64,1.64,0,0,0,47.92,34a1.91,1.91,0,0,0-1,.24,1.67,1.67,0,0,0-.64.65,2,2,0,0,0-.23,1v6.51Z" transform="translate(-1.63 -3.59)"/><path class="cls-1" d="M66.73,28.82a2.29,2.29,0,0,1-1.17-.32,2.41,2.41,0,0,1-.84-.84,2.29,2.29,0,0,1-.31-1.18,2.22,2.22,0,0,1,.31-1.16,2.41,2.41,0,0,1,.84-.84,2.29,2.29,0,0,1,1.17-.32,2.23,2.23,0,0,1,1.17.32,2.41,2.41,0,0,1,.84.84,2.19,2.19,0,0,1,.31,1.16,2.29,2.29,0,0,1-.31,1.18,2.41,2.41,0,0,1-.84.84A2.23,2.23,0,0,1,66.73,28.82Zm-2,13.52V31.17h4V42.34Z" transform="translate(-1.63 -3.59)"/><path class="cls-1" d="M76.63,42.68a3.59,3.59,0,0,1-2.82-1.13,4.63,4.63,0,0,1-1-3.19V34.19H71.17v-3h1.62V27h4v4.19h2.34v3H76.77v3.87a1.23,1.23,0,0,0,.22.8.74.74,0,0,0,.62.27,1.6,1.6,0,0,0,1-.35l1,3.2a6.43,6.43,0,0,1-1.4.51A6.2,6.2,0,0,1,76.63,42.68Z" transform="translate(-1.63 -3.59)"/><path class="cls-1" d="M87.65,42.68a6.86,6.86,0,0,1-3.29-.78,6,6,0,0,1-2.3-2.13,5.49,5.49,0,0,1-.85-3,5.6,5.6,0,0,1,.48-2.32A5.87,5.87,0,0,1,83,32.53a6.22,6.22,0,0,1,2-1.26,6.8,6.8,0,0,1,2.49-.45,6.13,6.13,0,0,1,3.06.73,5.24,5.24,0,0,1,2.06,2,6,6,0,0,1,.74,3,2.17,2.17,0,0,1,0,.26,4.36,4.36,0,0,1,0,.48h-8a2.19,2.19,0,0,0,.32,1.18,2.13,2.13,0,0,0,.89.78,3.2,3.2,0,0,0,1.36.27,2.87,2.87,0,0,0,1.28-.27,4.51,4.51,0,0,0,1.15-.93l2.86,1.43a5.43,5.43,0,0,1-2.25,2.15A6.86,6.86,0,0,1,87.65,42.68Zm-2.22-7.39h4.06a2.07,2.07,0,0,0-.35-.91,1.66,1.66,0,0,0-.7-.56,2.36,2.36,0,0,0-1-.2,2.49,2.49,0,0,0-1,.2,1.58,1.58,0,0,0-.7.57A1.92,1.92,0,0,0,85.43,35.29Z" transform="translate(-1.63 -3.59)"/><path class="cls-1" d="M99.33,42.68a8.22,8.22,0,0,1-2.57-.37,5.14,5.14,0,0,1-1.93-1.09l1.61-2.71a6.27,6.27,0,0,0,1.49.93,3.42,3.42,0,0,0,1.41.32,1.73,1.73,0,0,0,.55-.08.73.73,0,0,0,.33-.27.85.85,0,0,0-.1-1,2.22,2.22,0,0,0-.67-.4l-1.21-.5A11.83,11.83,0,0,1,97,36.87,3.13,3.13,0,0,1,96,36a2.5,2.5,0,0,1-.38-1.42,3.13,3.13,0,0,1,.62-1.92A4.18,4.18,0,0,1,98,31.31a6.47,6.47,0,0,1,2.54-.47,8.07,8.07,0,0,1,1.74.21,17.16,17.16,0,0,1,2.1.61l-1.28,2.61a6.12,6.12,0,0,0-2.53-.77,1.48,1.48,0,0,0-.82.2.57.57,0,0,0-.29.49.71.71,0,0,0,.4.58,4.43,4.43,0,0,0,1,.48l1,.37a8,8,0,0,1,1.41.64,2.79,2.79,0,0,1,1,1,3.08,3.08,0,0,1,.36,1.6,3.47,3.47,0,0,1-.61,2.09,3.68,3.68,0,0,1-1.76,1.31A7.75,7.75,0,0,1,99.33,42.68Z" transform="translate(-1.63 -3.59)"/><path class="cls-1" d="M3.79,62.33v-18H14.12V48H8v3.45h5.87v3.68H8v3.49h6.13v3.69Z" transform="translate(-1.63 -3.59)"/><path class="cls-1" d="M17.81,62.33V43.57h4V62.33Z" transform="translate(-1.63 -3.59)"/><path class="cls-1" d="M30.87,62.67a6.86,6.86,0,0,1-3.29-.78,6,6,0,0,1-2.31-2.13,5.57,5.57,0,0,1-.84-3,5.68,5.68,0,0,1,.48-2.33,5.78,5.78,0,0,1,1.34-1.88,6.12,6.12,0,0,1,2-1.26,6.8,6.8,0,0,1,2.49-.45,6.18,6.18,0,0,1,3.06.73,5.24,5.24,0,0,1,2.06,2,6,6,0,0,1,.74,3c0,.09,0,.18,0,.26s0,.24,0,.48h-8a2.19,2.19,0,0,0,.31,1.18,2.15,2.15,0,0,0,.9.78,3.17,3.17,0,0,0,1.36.27,2.87,2.87,0,0,0,1.28-.27,4.68,4.68,0,0,0,1.15-.93l2.86,1.43a5.49,5.49,0,0,1-2.25,2.15A6.86,6.86,0,0,1,30.87,62.67Zm-2.22-7.39H32.7a1.85,1.85,0,0,0-.35-.91,1.74,1.74,0,0,0-.69-.57,2.58,2.58,0,0,0-1-.19,2.56,2.56,0,0,0-1,.2,1.61,1.61,0,0,0-.69.57A1.81,1.81,0,0,0,28.65,55.28Z" transform="translate(-1.63 -3.59)"/><path class="cls-1" d="M44.62,62.67a6.56,6.56,0,0,1-2.43-.45,6.38,6.38,0,0,1-2-1.28,6.07,6.07,0,0,1-1.37-1.89,5.29,5.29,0,0,1-.5-2.3,5.54,5.54,0,0,1,.47-2.23,6.34,6.34,0,0,1,1.33-1.9,6.33,6.33,0,0,1,4.49-1.81,7.22,7.22,0,0,1,2.08.3,4.79,4.79,0,0,1,1.57.75l-1.32,2.68a2.87,2.87,0,0,0-1.7-.48,2.79,2.79,0,0,0-1.52.4,2.64,2.64,0,0,0-.91,1,2.83,2.83,0,0,0-.3,1.25,2.75,2.75,0,0,0,.34,1.34,2.58,2.58,0,0,0,1,1,2.86,2.86,0,0,0,1.45.36,3.23,3.23,0,0,0,1-.13,2.68,2.68,0,0,0,.72-.34l1.32,2.68a5.22,5.22,0,0,1-1.57.74A7,7,0,0,1,44.62,62.67Z" transform="translate(-1.63 -3.59)"/><path class="cls-1" d="M54.79,62.67A3.6,3.6,0,0,1,52,61.54a4.63,4.63,0,0,1-1-3.19V54.18H49.33v-3H51V47h4v4.19h2.34v3H54.93v3.87a1.23,1.23,0,0,0,.22.8.74.74,0,0,0,.62.27,1.6,1.6,0,0,0,.95-.35l1,3.2a6.43,6.43,0,0,1-1.4.51A6.2,6.2,0,0,1,54.79,62.67Z" transform="translate(-1.63 -3.59)"/><path class="cls-1" d="M60.4,62.33V51.16h4v1.58A4.84,4.84,0,0,1,66,51.32a3.9,3.9,0,0,1,1.93-.51,4.66,4.66,0,0,1,1.29.2,3.82,3.82,0,0,1,1.13.51l-1.66,3.35a3.41,3.41,0,0,0-.92-.44,3,3,0,0,0-1-.17,2.32,2.32,0,0,0-1.16.31,2.72,2.72,0,0,0-.89.83,1.94,1.94,0,0,0-.33,1.09v5.84Z" transform="translate(-1.63 -3.59)"/><path class="cls-1" d="M77.43,62.67A7.59,7.59,0,0,1,74,61.92a6,6,0,0,1-2.39-2.1,5.77,5.77,0,0,1,0-6.16A6,6,0,0,1,74,51.57a8,8,0,0,1,6.81,0,6.11,6.11,0,0,1,2.4,2.09,5.83,5.83,0,0,1,0,6.16,6.13,6.13,0,0,1-2.4,2.1A7.58,7.58,0,0,1,77.43,62.67Zm0-3.38a2.46,2.46,0,0,0,2.18-1.22,2.85,2.85,0,0,0,0-2.66,2.53,2.53,0,0,0-.91-.9,2.63,2.63,0,0,0-1.27-.32,2.58,2.58,0,0,0-1.27.32,2.38,2.38,0,0,0-.91.9,2.77,2.77,0,0,0,0,2.66,2.38,2.38,0,0,0,.91.9A2.47,2.47,0,0,0,77.43,59.29Zm-.69-9.21L75.1,48.73l3.36-5,2.61,2Z" transform="translate(-1.63 -3.59)"/><path class="cls-1" d="M86.75,62.33V51.16h4v1.13a5.37,5.37,0,0,1,1.69-1.08,5.19,5.19,0,0,1,2-.4,4.48,4.48,0,0,1,2.27.57,4.13,4.13,0,0,1,1.57,1.56,4.55,4.55,0,0,1,.57,2.29v7.1h-4V56.08a2.21,2.21,0,0,0-.55-1.59,2,2,0,0,0-1.51-.58,2.28,2.28,0,0,0-1.11.26,1.87,1.87,0,0,0-.73.72A2.1,2.1,0,0,0,90.73,56v6.37Z" transform="translate(-1.63 -3.59)"/><path class="cls-1" d="M104.3,48.81a2.29,2.29,0,0,1-1.17-.32,2.36,2.36,0,0,1-.84-.85,2.34,2.34,0,0,1,0-2.33,2.41,2.41,0,0,1,.84-.84,2.29,2.29,0,0,1,1.17-.32,2.23,2.23,0,0,1,1.17.32,2.41,2.41,0,0,1,.84.84,2.17,2.17,0,0,1,.31,1.16,2.23,2.23,0,0,1-.31,1.17,2.36,2.36,0,0,1-.84.85A2.23,2.23,0,0,1,104.3,48.81Zm-2,13.52V51.16h4V62.33Z" transform="translate(-1.63 -3.59)"/><path class="cls-1" d="M115.21,62.67a6.56,6.56,0,0,1-2.43-.45,6.38,6.38,0,0,1-2-1.28,6.26,6.26,0,0,1-1.38-1.89,5.48,5.48,0,0,1,0-4.53,6.14,6.14,0,0,1,1.32-1.9,6.38,6.38,0,0,1,4.49-1.81,7.22,7.22,0,0,1,2.08.3,5,5,0,0,1,1.58.75l-1.32,2.68a2.87,2.87,0,0,0-1.7-.48,2.77,2.77,0,0,0-1.52.4,2.56,2.56,0,0,0-.91,1,2.83,2.83,0,0,0-.3,1.25,2.64,2.64,0,0,0,.34,1.34,2.44,2.44,0,0,0,1,1,2.84,2.84,0,0,0,1.45.36,3.23,3.23,0,0,0,1-.13,2.68,2.68,0,0,0,.72-.34l1.32,2.68a5.34,5.34,0,0,1-1.57.74A7.08,7.08,0,0,1,115.21,62.67Z" transform="translate(-1.63 -3.59)"/><path class="cls-1" d="M126.9,62.67a7.58,7.58,0,0,1-3.4-.75,6.13,6.13,0,0,1-2.4-2.1,5.83,5.83,0,0,1,0-6.16,6.11,6.11,0,0,1,2.4-2.09,8,8,0,0,1,6.8,0,6,6,0,0,1,2.4,2.09,5.77,5.77,0,0,1,0,6.16,6,6,0,0,1-2.4,2.1A7.55,7.55,0,0,1,126.9,62.67Zm0-3.38a2.47,2.47,0,0,0,1.27-.32,2.38,2.38,0,0,0,.91-.9,2.77,2.77,0,0,0,0-2.66,2.38,2.38,0,0,0-.91-.9,2.58,2.58,0,0,0-1.27-.32,2.6,2.6,0,0,0-1.27.32,2.53,2.53,0,0,0-.91.9,2.66,2.66,0,0,0-.34,1.33,2.63,2.63,0,0,0,.34,1.33,2.53,2.53,0,0,0,.91.9A2.5,2.5,0,0,0,126.9,59.29Z" transform="translate(-1.63 -3.59)"/><path class="cls-1" d="M139.4,62.67a8.22,8.22,0,0,1-2.57-.37,5.14,5.14,0,0,1-1.93-1.09l1.61-2.71a6.27,6.27,0,0,0,1.49.93,3.59,3.59,0,0,0,1.41.32,1.62,1.62,0,0,0,.54-.08.71.71,0,0,0,.34-.27.81.81,0,0,0,.11-.43.71.71,0,0,0-.21-.55,2.17,2.17,0,0,0-.68-.4l-1.2-.5a11.83,11.83,0,0,1-1.28-.66,3,3,0,0,1-1-.91,2.5,2.5,0,0,1-.38-1.42,3.13,3.13,0,0,1,.62-1.92A4.18,4.18,0,0,1,138,51.3a6.41,6.41,0,0,1,2.53-.47,8.07,8.07,0,0,1,1.74.21,17.27,17.27,0,0,1,2.11.61l-1.28,2.61a6.16,6.16,0,0,0-2.53-.77,1.46,1.46,0,0,0-.82.2.57.57,0,0,0-.3.49.73.73,0,0,0,.4.58,4.77,4.77,0,0,0,1,.48l1,.37a7.62,7.62,0,0,1,1.41.64,2.79,2.79,0,0,1,1,1,3.08,3.08,0,0,1,.36,1.6,3.49,3.49,0,0,1-.61,2.09,3.68,3.68,0,0,1-1.76,1.31A7.78,7.78,0,0,1,139.4,62.67Z" transform="translate(-1.63 -3.59)"/></svg>