<?xml version="1.0" encoding="utf-8"?>
<!-- Generator: Adobe Illustrator 25.2.1, SVG Export Plug-In . SVG Version: 6.00 Build 0)  -->
<svg version="1.1" id="Layer_1" xmlns="http://www.w3.org/2000/svg" xmlns:xlink="http://www.w3.org/1999/xlink" x="0px" y="0px"
	 viewBox="0 0 154 46" style="enable-background:new 0 0 154 46;" xml:space="preserve">
<style type="text/css">
	.st0{fill:#FFFFFF;}
</style>
<g>
	<g>
		<path class="st0" d="M41.1,23.4c0.7,0,1.4,0.1,2,0.4c0.6,0.2,1.1,0.6,1.4,1l0.2,0.2l2.4-2.7l-0.2-0.2c-1.6-1.6-3.7-2.4-6.2-2.4
			s-4.6,0.8-6.1,2.4c-1.6,1.6-2.4,3.6-2.4,6.1s0.8,4.5,2.4,6.1c1.6,1.6,3.6,2.3,6.2,2.3c2.5,0,4.6-0.8,6.2-2.4l0.2-0.2l-2.5-2.6
			l-0.2,0.2c-0.3,0.4-0.8,0.7-1.4,1c-0.6,0.3-1.3,0.4-2,0.4c-1.3,0-2.3-0.4-3.1-1.3c-0.8-0.9-1.2-2.1-1.2-3.5s0.4-2.6,1.2-3.5
			C38.8,23.8,39.8,23.4,41.1,23.4z"/>
		<path class="st0" d="M59.7,26c-1.2-1.1-2.8-1.7-4.7-1.7s-3.5,0.6-4.7,1.7c-1.2,1.1-1.8,2.6-1.8,4.5c0,1.9,0.6,3.3,1.8,4.5
			c1.2,1.1,2.8,1.7,4.7,1.7s3.5-0.6,4.7-1.7s1.8-2.6,1.8-4.5C61.5,28.6,60.9,27.2,59.7,26z M56.7,32.5c-0.4,0.5-1,0.8-1.7,0.8
			s-1.2-0.3-1.7-0.8c-0.4-0.5-0.7-1.2-0.7-2s0.2-1.5,0.7-2c0.4-0.5,1-0.8,1.7-0.8s1.2,0.2,1.7,0.8c0.4,0.5,0.7,1.2,0.7,2
			S57.1,32,56.7,32.5z"/>
		<path class="st0" d="M68.2,32.8L68,33c-0.2,0.2-0.3,0.2-0.5,0.2S67.1,33.1,67,33s-0.2-0.3-0.2-0.5V19.4h-3.9v13.4
			c0,1.1,0.4,2.1,1.1,2.8c0.7,0.7,1.7,1.1,2.9,1.1c1.2,0,2.3-0.4,3.1-1.3l0.1-0.1L68.2,32.8z"/>
		<path class="st0" d="M71.2,40.3V27.1h1.8v1.7c0.3-0.5,0.7-1,1.3-1.3c0.6-0.3,1.3-0.5,2-0.5c1.2,0,2.1,0.4,2.8,1.3
			c0.7,0.8,1.1,1.9,1.1,3.3c0,1.5-0.5,2.7-1.4,3.6c-0.9,0.9-2.1,1.4-3.6,1.4c-0.9,0-1.7-0.2-2.3-0.5v4.5h-1.7V40.3z M73.1,31.5v2.9
			c0.7,0.4,1.4,0.5,2.1,0.5c1,0,1.7-0.3,2.3-0.9c0.6-0.6,0.9-1.4,0.9-2.5c0-0.9-0.2-1.7-0.7-2.3s-1.1-0.9-1.9-0.9s-1.4,0.3-1.9,0.9
			C73.2,29.8,73.1,30.6,73.1,31.5z"/>
		<path class="st0" d="M90.7,32.2h-7.2c0,0.8,0.4,1.4,1,1.9s1.4,0.7,2.4,0.7c1.1,0,1.9-0.3,2.5-0.8l1,1c-0.9,0.9-2.2,1.4-3.7,1.4
			S84,36,83.1,35.1s-1.4-2.1-1.4-3.5c0-1.4,0.4-2.5,1.3-3.4c0.8-0.9,2-1.3,3.3-1.3c1.4,0,2.5,0.4,3.3,1.3s1.3,2,1.3,3.5
			C90.7,31.9,90.7,32.1,90.7,32.2z M83.5,30.9h5.4c0-0.7-0.3-1.3-0.8-1.8s-1.1-0.7-1.8-0.7c-0.8,0-1.4,0.2-1.9,0.7
			C83.9,29.6,83.6,30.2,83.5,30.9z"/>
		<path class="st0" d="M92,36.2v-9.2h1.8v1.6c0.3-0.6,0.8-1,1.4-1.3s1.2-0.5,1.9-0.5c1.1,0,1.9,0.3,2.6,1s1,1.5,1,2.6v5.8h-1.8v-5.5
			c0-0.7-0.2-1.3-0.6-1.8s-1-0.7-1.7-0.7c-0.8,0-1.5,0.3-2,0.9c-0.5,0.6-0.8,1.4-0.8,2.3v4.8H92z"/>
		<path class="st0" d="M109.1,33.7c0,0.8-0.3,1.5-1,2s-1.6,0.8-2.7,0.8c-1.4,0-2.5-0.4-3.5-1.3l0.9-1.1c0.7,0.6,1.5,0.8,2.5,0.8
			c0.6,0,1.1-0.1,1.5-0.3c0.4-0.2,0.6-0.5,0.6-0.8c0-0.3-0.2-0.6-0.5-0.8c-0.3-0.2-0.8-0.4-1.5-0.6c-0.1,0-0.1,0-0.2-0.1
			c-0.5-0.1-0.8-0.3-1.1-0.4c-0.3-0.1-0.6-0.3-0.9-0.5s-0.6-0.5-0.8-0.8c-0.2-0.3-0.2-0.7-0.2-1.1c0-0.8,0.3-1.5,0.9-2
			s1.5-0.7,2.5-0.7c1.3,0,2.4,0.4,3.2,1.2l-0.9,1.1c-0.6-0.5-1.3-0.8-2.2-0.8c-0.5,0-1,0.1-1.3,0.3s-0.5,0.5-0.5,0.8
			c0,0.2,0.1,0.5,0.4,0.7c0.2,0.2,0.5,0.3,0.7,0.4c0.2,0.1,0.5,0.2,1,0.3c0.4,0.1,0.7,0.2,1,0.3c0.2,0.1,0.5,0.2,0.8,0.4
			s0.6,0.3,0.8,0.5c0.2,0.2,0.3,0.4,0.5,0.7C109,33,109.1,33.2,109.1,33.7z"/>
		<g>
			<rect x="110.4" y="23.4" class="st0" width="1.8" height="1.8"/>
			<rect x="110.4" y="27.1" class="st0" width="1.8" height="9.2"/>
		</g>
		<path class="st0" d="M114.8,35.1c-0.9-0.9-1.4-2-1.4-3.4c0-1.4,0.5-2.5,1.4-3.4s2.1-1.3,3.5-1.3s2.6,0.4,3.5,1.3
			c0.9,0.9,1.4,2,1.4,3.4c0,1.4-0.5,2.5-1.4,3.4s-2.1,1.3-3.5,1.3C116.9,36.3,115.7,36,114.8,35.1z M116.2,29.3
			c-0.6,0.6-0.8,1.4-0.8,2.3c0,0.9,0.3,1.7,0.8,2.3c0.6,0.6,1.3,0.9,2.1,0.9s1.6-0.3,2.1-0.9c0.6-0.6,0.8-1.4,0.8-2.3
			c0-0.9-0.3-1.7-0.8-2.3c-0.6-0.6-1.3-0.9-2.1-0.9S116.7,28.7,116.2,29.3z"/>
		<path class="st0" d="M124.5,36.2v-9.2h1.8v1.6c0.3-0.6,0.8-1,1.4-1.3c0.6-0.3,1.2-0.5,1.9-0.5c1.1,0,1.9,0.3,2.6,1
			c0.7,0.7,1,1.5,1,2.6v5.8h-1.8v-5.5c0-0.7-0.2-1.3-0.6-1.8c-0.4-0.5-1-0.7-1.7-0.7c-0.8,0-1.5,0.3-2,0.9c-0.5,0.6-0.8,1.4-0.8,2.3
			v4.8H124.5z"/>
		<path class="st0" d="M143.4,32.2h-7.2c0,0.8,0.4,1.4,1,1.9s1.4,0.7,2.4,0.7c1.1,0,1.9-0.3,2.5-0.8l1,1c-0.9,0.9-2.2,1.4-3.7,1.4
			s-2.7-0.5-3.6-1.4c-0.9-0.9-1.4-2.1-1.4-3.5c0-1.4,0.4-2.5,1.3-3.4c0.8-0.9,2-1.3,3.3-1.3c1.4,0,2.5,0.4,3.3,1.3
			c0.9,0.9,1.3,2,1.3,3.5C143.4,31.9,143.4,32.1,143.4,32.2z M136.2,30.9h5.4c0-0.7-0.3-1.3-0.8-1.8s-1.1-0.7-1.8-0.7
			c-0.8,0-1.4,0.2-1.9,0.7C136.7,29.6,136.4,30.2,136.2,30.9z"/>
		<path class="st0" d="M151.9,33.7c0,0.8-0.3,1.5-1,2s-1.6,0.8-2.7,0.8c-1.4,0-2.5-0.4-3.5-1.3l0.9-1.1c0.7,0.6,1.5,0.8,2.5,0.8
			c0.6,0,1.1-0.1,1.5-0.3c0.4-0.2,0.6-0.5,0.6-0.8c0-0.3-0.2-0.6-0.5-0.8c-0.3-0.2-0.8-0.4-1.5-0.6c-0.1,0-0.1,0-0.2-0.1
			c-0.5-0.1-0.8-0.3-1.1-0.4c-0.3-0.1-0.6-0.3-0.9-0.5c-0.3-0.2-0.6-0.5-0.8-0.8s-0.2-0.7-0.2-1.1c0-0.8,0.3-1.5,0.9-2
			c0.6-0.5,1.5-0.7,2.5-0.7c1.3,0,2.4,0.4,3.2,1.2l-0.9,1.1c-0.6-0.5-1.3-0.8-2.2-0.8c-0.5,0-1,0.1-1.3,0.3s-0.5,0.5-0.5,0.8
			c0,0.2,0.1,0.5,0.4,0.7c0.2,0.2,0.5,0.3,0.7,0.4c0.2,0.1,0.5,0.2,1,0.3c0.4,0.1,0.7,0.2,1,0.3c0.2,0.1,0.5,0.2,0.8,0.4
			s0.6,0.3,0.8,0.5c0.2,0.2,0.3,0.4,0.5,0.7C151.9,33,151.9,33.2,151.9,33.7z"/>
	</g>
	<g>
		<path class="st0" d="M19.1,5.3c-0.1,0-0.1,0-0.1,0.1c-0.1,0.3-0.3,0.5-0.5,0.6S18,6.2,17.7,6.2c-0.1,0-0.8-0.2-1.9-0.5
			s-2.2-0.5-3.3-0.5c-3,0-5.9,1-7.8,3.1c-1.7,2-2.6,4.4-2.6,7.3c0,2.8,0.9,5.1,2.6,7c1.9,2,4.7,3,7.9,3c1.9,0,3.7-0.5,5.4-1.6
			c0.9-0.6,1.7-1.3,2.4-2.1c0,0,0-0.1,0-0.2c-0.1-0.1-0.3-0.3-0.4-0.4c0,0-0.1,0-0.2,0c-0.8,0.8-1.6,1.4-2.3,1.8
			c-1.3,0.7-2.7,1.1-4.2,1.1c-2.1,0-3.5-0.8-4.9-2.4C7,20.1,6.3,18,6.3,15.4c0-2.9,0.7-5.1,2-6.7c1.3-1.6,2.6-2.4,4.7-2.4
			c2,0,3.7,0.8,4.9,2.3c0.6,0.8,1.1,1.8,1.5,3.1l0.1,0.1H20c0.1,0,0.1-0.1,0.1-0.1l-0.3-6.4c0-0.1-0.1-0.1-0.1-0.1L19.1,5.3z"/>
		<path class="st0" d="M22.4,15.4c0,1.5-1.2,2.7-2.7,2.7S17,16.9,17,15.4s1.2-2.7,2.7-2.7S22.4,13.9,22.4,15.4"/>
		<path class="st0" d="M31,17.6c0-0.1,0-0.2,0-0.3c-0.1-4.2-2.7-6.7-4.6-7.9c-1.1-0.7-2.4-1.2-3.8-1.5c-6.3-1.1-9.7,3-10.2,3.6
			c0,0,0,0.1,0,0.2l0.4,0.4c0,0,0.1,0,0.2,0c0.6-0.6,4.2-4.2,9-2.5c0,0,3.5,1,4.6,5.9c0.6,2.6,0.5,8-3.5,10.1c0,0-2.1,1.3-8.4,1.1
			c-0.1,0-0.1,0.1-0.1,0.1V27l0,0c0,0,0.2,8.7-0.4,11.5c-0.1,0.5-0.4,0.9-0.9,1.1s-1.2,0.4-2.5,0.5c-0.1,0-0.1,0.1-0.1,0.1v0.6
			c0,0.1,0.1,0.1,0.1,0.1h12.6c0.1,0,0.1-0.1,0.1-0.1v-0.5c0-0.1,0-0.1-0.1-0.1c-0.4,0-1.9-0.1-2.9-0.5c-0.4-0.2-0.6-0.5-0.7-0.9
			c-0.3-1-0.8-3.7-0.6-10.6c0-0.1,0.1-0.1,0.1-0.1C31.1,28,31.1,18.7,31,17.6z"/>
	</g>
</g>
</svg>
