<?xml version="1.0" encoding="utf-8"?>
<!-- Generator: Adobe Illustrator 25.2.0, SVG Export Plug-In . SVG Version: 6.00 Build 0)  -->
<svg version="1.1" id="Capa_1" xmlns="http://www.w3.org/2000/svg" xmlns:xlink="http://www.w3.org/1999/xlink" x="0px" y="0px"
	 viewBox="0 0 247.97 55.12" style="enable-background:new 0 0 247.97 55.12;" xml:space="preserve">
<style type="text/css">
	.st0{fill:#FFFFFF;}
	.st1{fill:#FCD102;}
	.st2{fill:#0555A0;}
	.st3{fill:#D21C3B;}
</style>
<g>
	<g>
		<path class="st0" d="M43,19.97l-3.03,1.15l-0.29,0.82L39,22.38c-0.19-2.52-0.32-3.52-0.37-3.52l1.09-0.01l2.02-2.46l-2.93,1.26
			l-0.26,0.86l-2.88,2.18c0.06,0.54,0.23,2.18,0.12,3.78l0.64-0.43c0.28,11.99-5.21,16.5-5.21,16.5c-1.39-0.64-1.74-1.11-1.74-1.11
			c5-5.57,4.77-13.62,4.76-13.91l-0.53,0.35c0,0,0.22-2.55,0.07-3.75l-0.92,0.7c-0.02-0.82-0.07-1.51-0.13-1.98
			c0.56,0.04,1.13-0.05,1.6-0.39c0.5-0.36,0.76-1.43,0.84-1.88c0.08-0.46-0.01-0.61-0.29-0.79c-0.28-0.18-0.86-0.7-1.09-0.94
			c0,0,0.48-0.2,1.59,0.32c1.2,0.57,2.12,0.29,3.14-1.23L37.3,16.1l0.11-0.85c0.02,0.01,0.04,0.02,0.06,0.03
			c0.17,0.12,0.75,0.33,1.03,0.39c0.28,0.06,0.27,0.02,0.44,0.12c0.17,0.1,0.32,0.15,0.41,0.1c0,0,0.69,0.39,0.96,0
			c0,0,0.27,0.16,0.4,0.21c0.21,0.08,0.54,0.19,0.65,0.17c0.11-0.02,0.37,0.09,0.42,0.11c0.43,0.22,0.7,0.11,0.76,0
			c0.06-0.1-0.27-0.45-0.53-0.66c-0.26-0.21-0.48-0.26-0.48-0.26c0.08-0.06,0.06-0.14-0.1-0.34c-0.17-0.2-0.71-0.47-0.71-0.47
			c0.01-0.16-0.62-0.55-0.99-0.83c-0.38-0.28-0.22-0.27-0.62-0.68c-0.39-0.41-2.2-1.84-3.1-2.49c-0.9-0.64-3.37-2.52-5.48-3.2
			c-2.11-0.68-3.36-0.53-4.25,0.03c-0.89,0.55-0.67,1.29-0.51,1.75c0.16,0.46,0.46,1.03,0.64,1.38c0.18,0.35,0.03,0.35-0.05,0.4
			c-0.08,0.05,0.01,0.19-0.07,0.18c-0.08-0.01-0.13,0.09-0.24,0.21c-0.05,0.06-0.2,0.11-0.4,0.15c-0.04-0.17,0.06-0.29,0.06-0.29
			c-0.14-0.08-0.38-0.11-0.38-0.11c0.03-0.06,0.14-0.1,0.14-0.1c-0.15-0.04-0.44,0.01-0.44,0.01c0.05-0.07,0.09-0.09,0.09-0.09
			c-0.27-0.09-0.52,0.13-0.62,0.24c-0.12-0.22-0.28-0.37-0.43-0.51c-0.16-0.15-0.25-0.37-0.42-0.55c0,0,0.14-0.22,0.04-0.44
			c-0.1-0.22-0.38-0.39-0.55-0.43c0,0,0.15-0.07,0.13-0.24c-0.02-0.17-0.18-0.23-0.34-0.17c-0.17,0.05-0.36,0.05-0.49,0.17
			c0,0-0.14,0.01-0.24,0c0.14-0.46,0.2-1.08-0.58-1.56c-0.89-0.55-2.14-0.71-4.25-0.03c-2.11,0.68-4.58,2.56-5.48,3.2
			C11,11.3,9.2,12.73,8.8,13.14c-0.4,0.41-0.24,0.39-0.62,0.68c-0.37,0.28-1,0.67-0.99,0.83c0,0-0.55,0.27-0.71,0.47
			c-0.17,0.2-0.19,0.28-0.11,0.34c0,0-0.22,0.04-0.48,0.26c-0.26,0.21-0.59,0.56-0.53,0.66c0.06,0.11,0.32,0.22,0.76,0
			c0.04-0.02,0.3-0.13,0.41-0.11c0.11,0.02,0.44-0.1,0.65-0.17c0.13-0.05,0.4-0.21,0.4-0.21c0.28,0.39,0.96,0,0.96,0
			c0.09,0.04,0.24,0,0.41-0.1c0.17-0.1,0.17-0.06,0.44-0.12c0.28-0.05,0.86-0.27,1.03-0.39c0.02-0.02,0.05-0.03,0.07-0.04l0.11,0.85
			L9.4,15.92c1.02,1.52,1.94,1.8,3.14,1.23c1.12-0.52,1.59-0.32,1.59-0.32c-0.23,0.24-0.82,0.76-1.09,0.94
			c-0.28,0.18-0.37,0.33-0.29,0.79c0.08,0.46,0.34,1.52,0.84,1.88c0.47,0.34,1.05,0.42,1.6,0.39c-0.06,0.48-0.1,1.16-0.13,1.98
			l-0.93-0.71c-0.14,1.2,0.07,3.76,0.07,3.76l-0.53-0.35c-0.01,0.29-0.24,8.34,4.76,13.91c0,0-0.36,0.47-1.74,1.11
			c0,0-5.48-4.51-5.2-16.5l0.64,0.43c-0.11-1.61,0.05-3.25,0.12-3.79L9.39,18.5l-0.27-0.86l-2.93-1.26l2.02,2.46l1.09,0.01
			c-0.06,0-0.18,1-0.37,3.52l-0.68-0.44l-0.29-0.82l-3.03-1.15l2.14,2.39l1.07-0.07c0,0-1.09,10.61,2.51,16.32
			c3,4.75,7.37,4.79,11.34,2.12c-0.14,0.46-0.62,1.85-1.96,4.36c0,0,0.77,0,1.6,0.14c0,0-0.16,0.69-0.25,0.9
			c-0.08,0.21-0.07,0.56,0.34,0.58c0.41,0.01,0.94,0.06,0.94,0.06s-0.07,0.5-0.08,0.76c-0.01,0.36-0.05,0.51,1.38,0.57
			c1.49-0.06,1.4-0.21,1.38-0.57c-0.01-0.27-0.08-0.76-0.08-0.76s0.53-0.05,0.94-0.06c0.41-0.02,0.42-0.37,0.34-0.58
			c-0.08-0.21-0.25-0.9-0.25-0.9c0.83-0.14,1.61-0.14,1.61-0.14c-1.35-2.53-1.83-3.9-1.97-4.36c3.98,2.67,8.35,2.64,11.35-2.12
			c3.6-5.71,2.51-16.32,2.51-16.32l1.07,0.07L43,19.97z M25.65,15.86c0.12-0.53,0.21-0.98,0.33-0.91c0.11,0.08,0.3,0.08,0.37-0.01
			c0.07-0.09,0.09-0.1,0.15-0.01c0.06,0.1,0.39,0.26,0.61-0.12c0.22-0.38,0.16-0.19,0.22-0.04c0.06,0.14,0.24,0.21,0.43,0.05
			c0.19-0.15,0.35-0.29,0.48-0.35c0.14-0.07,0.14-0.03,0.22-0.17c0.08-0.14,0.2-0.2,0.21-0.29c0.01-0.09-0.08-0.19,0.05-0.26
			c0.13-0.07,0.19-0.12,0.31-0.06c0.12,0.06,0.15-0.06,0.21,0.02c0.06,0.08,0.14,0.08,0.22,0c0.08-0.08,0.13-0.21,0.22-0.06
			c0.09,0.15,0.29,0.19,0.33,0.11c0.04-0.07,0.08-0.08,0.13,0.04c0.06,0.12,0.26,0.21,0.47,0.17c0,0,0.2,0.28,0.44,0.23
			c0.24-0.04,0.34-0.17,0.34-0.33c0.01-0.17-0.08-0.73,0.08-0.6c0.17,0.12,0.16,0.07,0.21-0.03c0.05-0.09,0.13,0.01,0.21-0.01
			c0.08-0.02,0.07-0.12,0.21,0.01c0.14,0.14,0.15,0.21,0.28,0.24c0.13,0.03,0.19,0.07,0.33,0.21c0.14,0.15,0.29,0.3,0.54,0.21
			c0,0,0.16,0.21,0.33,0.19c0,0,0.34,0.37,0.53,0.31c0,0,0.33,0.14,0.44,0.12c0.11-0.01,0.13-0.09,0.2-0.05
			c0.07,0.04,0.04-0.13,0.14-0.01c0.1,0.12,0.29,0.33,0.41,0.29c0,0,0.28,0.23,0.49,0.26c0.22,0.03,0.28,0.09,0.35,0.09
			s0.03-0.07,0.16,0.03c0.12,0.1,0.31,0.14,0.42,0.1c0.12-0.05,0.16-0.04,0.27-0.03c0.03,0,0.08,0,0.13,0
			c-0.35,0.41-0.8,0.74-1.65,0.48c-1.12-0.35-1.45-0.18-1.69,0.05c-0.24,0.23-0.75,0.91-0.89,1.34c-0.14,0.43-0.07,0.76,0.76,1.73
			c0,0-1.08,0.07-2.5-0.39c-1.43-0.46-2.74-0.62-4.07-0.03c-0.23,0.1-0.44,0.2-0.64,0.3c-0.15-0.15-0.52-0.53-0.65-0.7
			c0,0,0.09-0.44,0.08-0.7c-0.01-0.29-0.02-0.43-0.12-0.57C25.67,16.59,25.54,16.39,25.65,15.86z M31.36,20.55
			c-0.63,0.4-1.7,0.86-3.28,0.86c-1.23,0-2.19-0.28-2.86-0.6c0.28-0.17,1.37-0.79,2.74-0.83c1.59-0.04,2.28,0.18,3.04,0.44
			C31.1,20.46,31.22,20.5,31.36,20.55z M24.8,18.29c0.01,0,0.02,0.01,0.03,0.01c0.28,0.11,0.57,0.07,0.57,0.07
			c0.09,0.06,0.48,0.43,0.63,0.57c-0.4,0.22-0.76,0.45-1.1,0.74c-0.08-0.34-0.21-0.9-0.17-1.09C24.77,18.48,24.79,18.37,24.8,18.29z
			 M22.83,10.72c0.16,0.1,0.46,0.28,0.56,0.54c0.03,0.08,0.05,0.15,0.07,0.22c-0.22-0.05-0.39-0.06-0.52-0.04
			c-0.22-0.36-0.48-0.6-0.71-0.76C22.48,10.65,22.69,10.63,22.83,10.72z M21.5,10.62c0-0.01,0.01-0.01,0.01-0.03
			c0.19,0.28,0.6,0.77,1.26,0.91c-0.07,0.03-0.12,0.08-0.16,0.11c-0.36-0.05-0.67-0.11-0.75-0.21c-0.1-0.12-0.15-0.22-0.23-0.21
			c-0.08,0.01,0.01-0.13-0.07-0.18C21.46,10.96,21.32,10.97,21.5,10.62z M21.22,15.05c0.03,0.19,0.08,0.39,0.18,0.6
			c-0.03,0.05-0.05,0.09-0.07,0.14c-0.06-0.43-0.23-0.7-0.27-0.75C21.12,15.06,21.17,15.06,21.22,15.05z M14.25,18.82
			c0.83-0.97,0.9-1.3,0.76-1.73c-0.14-0.43-0.65-1.11-0.89-1.34c-0.23-0.23-0.57-0.4-1.69-0.05c-0.84,0.26-1.29-0.07-1.64-0.48
			c0.05,0,0.09,0.01,0.12,0c0.11-0.01,0.15-0.02,0.27,0.03c0.12,0.05,0.3,0,0.42-0.1c0.13-0.1,0.09-0.03,0.16-0.03
			c0.07,0,0.13-0.06,0.35-0.09c0.21-0.03,0.49-0.26,0.49-0.26c0.12,0.03,0.3-0.17,0.41-0.29c0.1-0.12,0.07,0.06,0.15,0.01
			c0.07-0.04,0.09,0.04,0.2,0.05c0.11,0.01,0.44-0.12,0.44-0.12c0.19,0.06,0.53-0.31,0.53-0.31c0.16,0.01,0.32-0.19,0.32-0.19
			c0.25,0.09,0.4-0.07,0.54-0.21c0.14-0.15,0.19-0.18,0.32-0.21c0.13-0.04,0.14-0.1,0.28-0.24c0.14-0.14,0.12-0.03,0.21-0.01
			c0.08,0.02,0.16-0.08,0.21,0.01c0.05,0.1,0.04,0.15,0.21,0.03c0.16-0.12,0.08,0.44,0.08,0.6c0.01,0.16,0.11,0.29,0.35,0.33
			c0.24,0.04,0.44-0.23,0.44-0.23c0.21,0.03,0.41-0.06,0.47-0.17c0.06-0.12,0.09-0.11,0.13-0.04c0.04,0.08,0.24,0.04,0.33-0.11
			c0.09-0.15,0.14-0.02,0.22,0.06c0.08,0.08,0.16,0.08,0.22,0c0.06-0.08,0.1,0.03,0.22-0.02c0.12-0.06,0.18-0.01,0.31,0.06
			c0.13,0.07,0.04,0.17,0.05,0.26c0.01,0.09,0.13,0.15,0.21,0.29c0.08,0.14,0.08,0.1,0.22,0.17c0.14,0.07,0.29,0.2,0.48,0.35
			c0.18,0.14,0.34,0.05,0.41-0.07c0.03,0.12,0.07,0.32,0.13,0.32l0,0c0.06,0,0.11-0.16,0.15-0.25c0.06,0.08,0.13,0.06,0.2,0.09
			c-0.03,0.06-0.52,1.04,0.07,1.91h0c0.03,0,0.05-0.04,0.07-0.09c0.06,0.57,0.03,0.69,0.03,0.69s-0.27,0.34-0.46,0.94
			c-1.31-0.57-2.61-0.39-4.02,0.06C15.33,18.88,14.25,18.82,14.25,18.82z M20.31,20c-0.16,0.49-0.38,1-0.68,1.4
			c-1.46-0.04-2.46-0.48-3.06-0.86c0.13-0.04,0.25-0.08,0.36-0.12c0.76-0.27,1.45-0.49,3.04-0.44C20.09,19.99,20.2,20,20.31,20z
			 M15.6,20.74c0.13-0.02,0.25-0.03,0.4-0.06c0.41,0.41,1.56,1.33,3.72,1.33c2.8,0,4.24-1.35,4.24-1.35s1.43,1.35,4.23,1.35
			c2.17,0,3.32-0.91,3.72-1.32c0.15,0.04,0.27,0.03,0.4,0.05c0.34,2.82-0.22,6.82-0.22,6.82h-8.14h-8.14
			C15.82,27.56,15.26,23.56,15.6,20.74z M15.82,28.05h8.14h8.14c0,0-0.25,3.11-1.58,5.72h-6.56H17.4
			C16.07,31.16,15.82,28.05,15.82,28.05z M23.96,41.37c-4.88-3.53-6.31-7.14-6.31-7.14h6.31h6.31
			C30.27,34.23,28.84,37.84,23.96,41.37z"/>
		<path class="st0" d="M27.01,27.18c0.28-0.01,0.54-0.11,0.76-0.28c0.12,0.04,0.24,0.06,0.36,0.05c0.44,0,0.82-0.29,1.03-0.71
			c0.2,0.03,0.4,0,0.58-0.1c0.4-0.21,0.58-0.7,0.5-1.18c0.02-0.01,0.04-0.03,0.06-0.05c0.36-0.3,0.35-0.9-0.01-1.35
			c-0.01-0.01-0.02-0.03-0.04-0.04c0.12-0.09,0.21-0.23,0.21-0.38c0-0.28-0.33-0.5-0.64-0.5c-0.3,0-0.64,0.22-0.64,0.5v0
			c0,0.02-0.19,0.07-0.3,0.16c-0.16,0.13-0.2,0.32-0.22,0.52c-0.06,0.02-0.09,0.04-0.14,0.07c-0.07,0.04-0.13,0.09-0.19,0.15
			c-0.09-0.02-0.17-0.03-0.27-0.03c-0.13,0-0.26,0.03-0.38,0.08c-0.22-0.15-0.47-0.24-0.75-0.23c-0.79,0.01-1.42,0.77-1.4,1.68
			C25.56,26.47,26.22,27.19,27.01,27.18z"/>
		<path class="st0" d="M17.68,24.92c0.02,0.02,0.04,0.03,0.06,0.05c-0.09,0.49,0.1,0.97,0.49,1.18c0.18,0.1,0.38,0.12,0.58,0.1
			c0.21,0.42,0.59,0.71,1.03,0.71c0.13,0,0.25-0.01,0.36-0.05c0.22,0.17,0.48,0.27,0.76,0.28c0.79,0.01,1.44-0.71,1.46-1.63
			c0.02-0.91-0.61-1.67-1.4-1.68c-0.27-0.01-0.53,0.08-0.75,0.23c-0.12-0.05-0.25-0.08-0.38-0.08c-0.09,0-0.18,0.01-0.27,0.03
			c-0.06-0.05-0.13-0.11-0.2-0.14c-0.05-0.03-0.11-0.05-0.17-0.07c-0.02-0.2-0.04-0.39-0.2-0.52c-0.11-0.1-0.33-0.15-0.33-0.16v0
			c0-0.28-0.31-0.5-0.61-0.5c-0.31,0-0.58,0.22-0.58,0.5c0,0.16,0.06,0.29,0.19,0.38c-0.01,0.01-0.03,0.02-0.04,0.04
			C17.33,24.02,17.32,24.62,17.68,24.92z"/>
		<path class="st0" d="M24.01,33.42l0.68-1.02l-0.13-0.48l0.53,0.07c0.04,0.22,0.18,0.48,0.39,0.51c0.21,0.04,0.57,0,0.57,0
			l0.2-0.23c-0.25-0.24-0.56-0.44-0.56-0.44c-0.07-1.41-0.32-2.37-0.5-2.88c-0.18-0.51-0.41-0.52-0.86-0.46
			c-0.45,0.06-1.67,0.8-1.67,0.8l-0.08,0.71l0.42,0.05c0,0-0.24,0.8-0.32,1.08c-0.08,0.29-0.01,0.27,0.14,0.38
			c0.15,0.11,0.74,0.25,0.74,0.25l-0.17,0.74L24.01,33.42z"/>
		<path class="st0" d="M22.42,24.44c0.24,1.4,1.15,1.53,1.5,1.52c-0.01,0.49-0.09,0.89-0.09,0.89l0.44,0.3
			c0.05-0.59,0.04-1.05,0-1.43c1.07-0.15,1.28-1.74,1.28-1.74c-1.04,0.47-1.26,1.22-1.3,1.56c-0.07-0.57-0.21-0.87-0.28-1
			c0.68-0.07,1.2-0.65,1.2-1.34c0-0.39-0.16-0.74-0.43-0.99l0.22-0.41l-0.47,0.09l-0.19-0.36l-0.35,0.28l-0.21-0.28l-0.22,0.32
			l-0.42-0.23L23.23,22c-0.45,0.22-0.75,0.68-0.75,1.21c0,0.67,0.49,1.22,1.12,1.33c0.21,0.33,0.29,0.75,0.32,1.14
			C23.34,24.74,22.42,24.44,22.42,24.44z M23.89,24.52c-0.33,0-0.59-0.58-0.59-1.3c0-0.71,0.27-1.29,0.59-1.29s0.59,0.58,0.59,1.29
			C24.48,23.94,24.21,24.52,23.89,24.52z"/>
		<path class="st0" d="M25.07,35.97c-0.12-0.29-0.12-0.58,0-0.87h-1.62c-0.12,0.29-0.12,0.58,0,0.87H25.07z"/>
		<path class="st0" d="M23.44,38c-0.12,0.29-0.12,0.87,0,1.16h1.62c-0.12-0.29-0.12-0.87,0-1.16H23.44z"/>
		<polygon class="st0" points="25.45,36.84 25.82,36.26 23.33,36.26 23.06,35.97 22.95,35.97 22.03,35.97 22.15,36.26 22.4,36.26 
			22.67,36.84 		"/>
		<polygon class="st0" points="25.43,39.45 25.34,39.45 24.93,39.45 24.58,39.45 24.17,39.45 23.91,39.45 23.47,39.45 23.33,39.45 
			23.18,39.16 22.64,39.16 22.8,39.49 23.25,39.74 25.39,39.74 25.82,39.49 25.88,39.16 25.53,39.16 		"/>
	</g>
	<g>
		<g>
			<path class="st0" d="M91.6,18.77c-2.34-2.3-5.81-3.52-8.86-3.52c-7.69,0-12.14,5.76-12.09,12.7c0,6,3.56,11.81,12.09,11.81
				c2.81,0,5.39-0.7,8.01-2.91v-6.66h-9.14v-4.69h14.01v13.45c-3.28,3.61-7.36,5.72-12.89,5.72c-12.05,0-17.25-8.01-17.25-16.73
				c0-9.47,6.05-17.53,17.25-17.53c4.36,0,8.76,1.64,12.14,4.97L91.6,18.77z"/>
			<path class="st0" d="M133.47,27.65c0,8.89-5.41,17.04-16.85,17.04S99.77,36.36,99.77,27.7c0-10.02,7.01-17.27,16.94-17.27
				C127.96,10.48,133.47,18.76,133.47,27.65z M116.62,39.84c8.19,0,11.63-5.79,11.63-12.1c0-6.07-3.48-12.38-11.53-12.52
				c-7.62,0-11.72,5.32-11.72,12.52C105.09,33.58,108.48,39.84,116.62,39.84z"/>
			<path class="st0" d="M154.1,44.69h-5.69l-14.14-34.16h6.12l10.84,27.65l10.88-27.65h6.07L154.1,44.69z"/>
			<path class="st0" d="M171.74,41.24c0,4.6-6.87,4.6-6.87,0C164.88,36.7,171.74,36.7,171.74,41.24z"/>
			<path class="st0" d="M205,39.78c-3.4,3.35-7.79,4.91-12.41,4.91c-11.99,0-17.37-8.26-17.41-16.94
				c-0.05-8.68,5.62-17.32,17.41-17.32c4.44,0,8.73,1.65,12.08,5l-3.54,3.4c-2.36-2.31-5.47-3.4-8.54-3.4
				c-8.4,0-12.22,6.18-12.18,12.27c0.05,6.04,3.63,12.03,12.18,12.03c3.07,0,6.47-1.27,8.78-3.59L205,39.78z"/>
			<path class="st0" d="M243.03,27.71c0,8.87-5.4,16.98-16.8,16.98c-11.4,0-16.8-8.31-16.8-16.94c0-9.99,6.99-17.22,16.89-17.22
				C237.54,10.58,243.03,18.84,243.03,27.71z M226.24,39.86c8.16,0,11.59-5.77,11.59-12.06c0-6.05-3.47-12.34-11.5-12.48
				c-7.6,0-11.68,5.3-11.68,12.48C214.74,33.62,218.12,39.86,226.24,39.86z"/>
		</g>
	</g>
	<g>
		<rect x="51.79" y="3.58" class="st1" width="3.69" height="20.56"/>
		<rect x="51.79" y="24.13" class="st2" width="3.69" height="13.7"/>
		<rect x="51.79" y="37.84" class="st3" width="3.69" height="13.71"/>
	</g>
</g>
</svg>
