<svg id="Capa_1" data-name="Capa 1" xmlns="http://www.w3.org/2000/svg" viewBox="0 0 46.09 46.09"><defs><style>.cls-1{fill:#fff;}</style></defs><g id="Grupo_699" data-name="Grupo 699"><g id="Trazado_131" data-name="Trazado 131"><path class="cls-1" d="M25.45,31a2,2,0,0,1-2-2v-.79a5.25,5.25,0,0,1,3.06-4.85c2.46-1.18,2.71-2.64,2.71-2.65l0-.27a3.62,3.62,0,0,0,.06-.46,3.81,3.81,0,0,0-3.57-4l-.22,0a4.83,4.83,0,0,0-5.44,3.32A2,2,0,0,1,16.26,18a8.87,8.87,0,0,1,9.83-6.08,7.81,7.81,0,0,1,7.21,8.23c0,.28,0,.55-.09.83-.09.83-.71,3.87-5,5.92a1.31,1.31,0,0,0-.77,1.21V29A2,2,0,0,1,25.45,31Z" transform="translate(-1.89 -1.66)"/></g><g id="Línea_72" data-name="Línea 72"><path class="cls-1" d="M25.24,38.42a2,2,0,0,1-2-2v-1a2,2,0,0,1,4,0v1A2,2,0,0,1,25.24,38.42Z" transform="translate(-1.89 -1.66)"/></g><g id="Elipse_15" data-name="Elipse 15"><path class="cls-1" d="M24.93,47.75a23,23,0,1,1,23-23A23.07,23.07,0,0,1,24.93,47.75Zm0-42.09A19,19,0,1,0,44,24.71,19.06,19.06,0,0,0,24.93,5.66Z" transform="translate(-1.89 -1.66)"/></g></g></svg>