<?xml version="1.0" encoding="utf-8"?>
<!-- Generator: Adobe Illustrator 25.2.1, SVG Export Plug-In . SVG Version: 6.00 Build 0)  -->
<svg version="1.1" id="Layer_1" xmlns="http://www.w3.org/2000/svg" xmlns:xlink="http://www.w3.org/1999/xlink" x="0px" y="0px"
	 viewBox="0 0 66.8 82.9" style="enable-background:new 0 0 66.8 82.9;" xml:space="preserve">
<style type="text/css">
	.st0{fill:#FFFFFF;}
</style>
<g>
	<path class="st0" d="M45.8,25.3c0,3.2-2.6,5.8-5.8,5.8s-5.8-2.6-5.8-5.8s2.6-5.8,5.8-5.8C43.2,19.5,45.8,22.1,45.8,25.3"/>
	<path class="st0" d="M38.8,3.9c-0.1,0-0.2,0.1-0.2,0.2c-0.2,0.6-0.5,1-1,1.3c-0.6,0.3-1.1,0.5-1.7,0.5c-0.3,0-1.6-0.3-4-1
		s-4.7-1-6.9-1c-6.4,0-12.4,2.1-16.4,6.4c-3.8,4.1-5.7,9.2-5.7,15.2c0,5.9,1.8,10.8,5.4,14.7c3.9,4.3,9.9,6.4,16.6,6.4
		c4.1,0,7.8-1.1,11.3-3.3c2-1.3,3.6-2.7,5-4.4c0.1-0.1,0.1-0.2,0-0.3c-0.2-0.2-0.6-0.6-0.8-0.8c-0.1-0.1-0.2-0.1-0.3,0
		c-1.8,1.7-3.4,2.9-4.9,3.8c-2.7,1.5-5.7,2.3-8.9,2.3c-4.4,0-7.4-1.7-10.3-5s-4.4-7.7-4.4-13.2c0-6,1.4-10.7,4.1-14.2
		c2.8-3.4,5.6-5.1,9.9-5.1c4.3,0,7.7,1.5,10.3,4.7c1.3,1.6,2.4,3.8,3.2,6.5c0,0.1,0.1,0.2,0.2,0.2h1c0.1,0,0.3-0.1,0.2-0.3L40,4.2
		c0-0.1-0.1-0.3-0.3-0.3H38.8z"/>
	<path class="st0" d="M63.9,29.9c0-0.2,0-0.4,0-0.6c-0.2-8.8-5.8-14.1-9.8-16.7C51.7,11,49,10,46.2,9.5C32.9,7.2,25.7,15.7,24.7,17
		c-0.1,0.1-0.1,0.2,0,0.3l0.8,0.8c0.1,0.1,0.3,0.1,0.4,0c1.2-1.2,8.8-8.7,19-5.3c0,0,7.3,2.1,9.6,12.5c1.2,5.5,1,16.9-7.4,21.4
		c0,0-4.3,2.8-17.6,2.3c-0.1,0-0.3,0.1-0.3,0.2v0.4l0,0c0,0,0.3,18.4-0.9,24.3c-0.2,1.1-0.9,2-1.9,2.4c-1,0.5-2.6,0.9-5.2,1.1
		c-0.1,0-0.2,0.1-0.2,0.2v1.3c0,0.1,0.1,0.2,0.2,0.2h26.6c0.1,0,0.2-0.1,0.2-0.2v-1.3c0-0.1-0.1-0.2-0.2-0.2c-0.9,0-4.1-0.2-6.1-1.1
		c-0.8-0.3-1.3-1-1.6-1.8c-0.6-2.1-1.6-7.7-1.2-22.3c0-0.1,0.1-0.2,0.2-0.2C64.1,51.9,64,32.1,63.9,29.9"/>
</g>
</svg>
